<svg width="42" height="42" viewBox="0 0 42 42" fill="none" xmlns="http://www.w3.org/2000/svg">
<path d="M21 0.166664C9.49999 0.166664 0.166656 9.5 0.166656 21C0.166656 32.5 9.49999 41.8333 21 41.8333C32.5 41.8333 41.8333 32.5 41.8333 21C41.8333 9.5 32.5 0.166664 21 0.166664ZM21 6.41666C24.4583 6.41666 27.25 9.20833 27.25 12.6667C27.25 16.125 24.4583 18.9167 21 18.9167C17.5417 18.9167 14.75 16.125 14.75 12.6667C14.75 9.20833 17.5417 6.41666 21 6.41666ZM21 36C15.7917 36 11.1875 33.3333 8.49999 29.2917C8.56249 25.1458 16.8333 22.875 21 22.875C25.1458 22.875 33.4375 25.1458 33.5 29.2917C30.8125 33.3333 26.2083 36 21 36Z" fill="#7B7B7B"/>
</svg>
